<?xml version="1.0" encoding="UTF-8" standalone="no"?>
<!DOCTYPE svg PUBLIC "-//W3C//DTD SVG 1.1//EN"
 "http://www.w3.org/Graphics/SVG/1.1/DTD/svg11.dtd">
<!-- Generated by graphviz version 2.40.1 (20161225.0304)
 -->
<!-- Title: state transitions Pages: 1 -->
<svg width="411pt" height="434pt"
 viewBox="0.00 0.00 411.00 434.00" xmlns="http://www.w3.org/2000/svg" xmlns:xlink="http://www.w3.org/1999/xlink">
<g id="graph0" class="graph" transform="scale(1 1) rotate(0) translate(4 430)">
<title>state transitions</title>
<polygon fill="#ffffff" stroke="transparent" points="-4,4 -4,-430 407,-430 407,4 -4,4"/>
<g id="clust1" class="cluster state regular">
<title>cluster_state</title>
<path fill="none" stroke="#000000" stroke-width="2" d="M20,-8C20,-8 383,-8 383,-8 389,-8 395,-14 395,-20 395,-20 395,-406 395,-406 395,-412 389,-418 383,-418 383,-418 20,-418 20,-418 14,-418 8,-412 8,-406 8,-406 8,-20 8,-20 8,-14 14,-8 20,-8"/>
<text text-anchor="start" x="188.4944" y="-399.2" font-family="Helvetica,sans-Serif" font-size="12.00" fill="#000000">state</text>
</g>
<!-- state -->
<!-- sINIT -->
<g id="node2" class="node state regular">
<title>sINIT</title>
<polygon fill="#ffffff" fill-opacity="0.003922" stroke="transparent" stroke-width="2" points="123,-380 67,-380 67,-344 123,-344 123,-380"/>
<text text-anchor="start" x="80.6684" y="-358.2" font-family="Helvetica,sans-Serif" font-size="12.00" fill="#000000">sINIT</text>
<path fill="none" stroke="#000000" stroke-width="2" d="M79.3333,-345C79.3333,-345 110.6667,-345 110.6667,-345 116.3333,-345 122,-350.6667 122,-356.3333 122,-356.3333 122,-367.6667 122,-367.6667 122,-373.3333 116.3333,-379 110.6667,-379 110.6667,-379 79.3333,-379 79.3333,-379 73.6667,-379 68,-373.3333 68,-367.6667 68,-367.6667 68,-356.3333 68,-356.3333 68,-350.6667 73.6667,-345 79.3333,-345"/>
</g>
<!-- sONE -->
<g id="node3" class="node state regular">
<title>sONE</title>
<polygon fill="#ffffff" fill-opacity="0.003922" stroke="transparent" stroke-width="2" points="285,-298 229,-298 229,-262 285,-262 285,-298"/>
<text text-anchor="start" x="240.9998" y="-276.2" font-family="Helvetica,sans-Serif" font-size="12.00" fill="#000000">sONE</text>
<path fill="none" stroke="#000000" stroke-width="2" d="M241.3333,-263C241.3333,-263 272.6667,-263 272.6667,-263 278.3333,-263 284,-268.6667 284,-274.3333 284,-274.3333 284,-285.6667 284,-285.6667 284,-291.3333 278.3333,-297 272.6667,-297 272.6667,-297 241.3333,-297 241.3333,-297 235.6667,-297 230,-291.3333 230,-285.6667 230,-285.6667 230,-274.3333 230,-274.3333 230,-268.6667 235.6667,-263 241.3333,-263"/>
</g>
<!-- sINIT&#45;&gt;sONE -->
<g id="edge1" class="edge transition">
<title>sINIT&#45;&gt;sONE</title>
<path fill="none" stroke="#000000" d="M123.2182,-347.7167C149.9668,-334.1773 190.3169,-313.7532 219.7076,-298.8764"/>
<polygon fill="#000000" stroke="#000000" points="221.4923,-301.8959 228.8338,-294.257 218.331,-295.6504 221.4923,-301.8959"/>
<text text-anchor="start" x="186" y="-318" font-family="Helvetica,sans-Serif" font-size="10.00" fill="#000000">ACTIVE_LOW = true &#160;&#160;</text>
</g>
<!-- sZERO -->
<g id="node5" class="node state regular">
<title>sZERO</title>
<polygon fill="#ffffff" fill-opacity="0.003922" stroke="transparent" stroke-width="2" points="190.5,-134 129.5,-134 129.5,-98 190.5,-98 190.5,-134"/>
<text text-anchor="start" x="140.8344" y="-112.2" font-family="Helvetica,sans-Serif" font-size="12.00" fill="#000000">sZERO</text>
<path fill="none" stroke="#000000" stroke-width="2" d="M141.8333,-99C141.8333,-99 178.1667,-99 178.1667,-99 183.8333,-99 189.5,-104.6667 189.5,-110.3333 189.5,-110.3333 189.5,-121.6667 189.5,-121.6667 189.5,-127.3333 183.8333,-133 178.1667,-133 178.1667,-133 141.8333,-133 141.8333,-133 136.1667,-133 130.5,-127.3333 130.5,-121.6667 130.5,-121.6667 130.5,-110.3333 130.5,-110.3333 130.5,-104.6667 136.1667,-99 141.8333,-99"/>
</g>
<!-- sINIT&#45;&gt;sZERO -->
<g id="edge2" class="edge transition">
<title>sINIT&#45;&gt;sZERO</title>
<path fill="none" stroke="#000000" d="M66.834,-353.3504C52.4735,-347.0129 38,-336.725 38,-321 38,-321 38,-321 38,-157 38,-139.5101 83.6214,-128.0789 119.0682,-121.8368"/>
<polygon fill="#000000" stroke="#000000" points="119.929,-125.2416 129.2142,-120.1392 118.7737,-118.3375 119.929,-125.2416"/>
<text text-anchor="start" x="38" y="-236" font-family="Helvetica,sans-Serif" font-size="10.00" fill="#000000">not (ACTIVE_LOW = true) &#160;&#160;</text>
</g>
<!-- sONEtoZERO -->
<g id="node4" class="node state regular">
<title>sONEtoZERO</title>
<polygon fill="#ffffff" fill-opacity="0.003922" stroke="transparent" stroke-width="2" points="255.5,-216 158.5,-216 158.5,-180 255.5,-180 255.5,-216"/>
<text text-anchor="start" x="169.8314" y="-194.2" font-family="Helvetica,sans-Serif" font-size="12.00" fill="#000000">sONEtoZERO</text>
<path fill="none" stroke="#000000" stroke-width="2" d="M170.8333,-181C170.8333,-181 243.1667,-181 243.1667,-181 248.8333,-181 254.5,-186.6667 254.5,-192.3333 254.5,-192.3333 254.5,-203.6667 254.5,-203.6667 254.5,-209.3333 248.8333,-215 243.1667,-215 243.1667,-215 170.8333,-215 170.8333,-215 165.1667,-215 159.5,-209.3333 159.5,-203.6667 159.5,-203.6667 159.5,-192.3333 159.5,-192.3333 159.5,-186.6667 165.1667,-181 170.8333,-181"/>
</g>
<!-- sONE&#45;&gt;sONEtoZERO -->
<g id="edge3" class="edge transition">
<title>sONE&#45;&gt;sONEtoZERO</title>
<path fill="none" stroke="#000000" d="M267.2821,-261.6677C270.9378,-252.5732 273.0398,-241.7022 268,-233 265.7971,-229.1964 263.0075,-225.7703 259.8398,-222.691"/>
<polygon fill="#000000" stroke="#000000" points="261.8047,-219.7751 251.8602,-216.1203 257.355,-225.1789 261.8047,-219.7751"/>
<text text-anchor="start" x="270" y="-236" font-family="Helvetica,sans-Serif" font-size="10.00" fill="#000000">sig_in = &#39;0&#39; &#160;&#160;</text>
</g>
<!-- sONEtoZERO&#45;&gt;sONE -->
<g id="edge4" class="edge transition">
<title>sONEtoZERO&#45;&gt;sONE</title>
<path fill="none" stroke="#000000" d="M203.2589,-216.3507C202.3217,-225.4499 202.6431,-236.3196 207.174,-245 210.3948,-251.1705 215.2549,-256.4822 220.6981,-260.9687"/>
<polygon fill="#000000" stroke="#000000" points="218.8145,-263.926 228.967,-266.9554 222.9196,-258.256 218.8145,-263.926"/>
<text text-anchor="start" x="207" y="-236" font-family="Helvetica,sans-Serif" font-size="10.00" fill="#000000">sig_in = &#39;1&#39; &#160;&#160;</text>
</g>
<!-- sONEtoZERO&#45;&gt;sZERO -->
<g id="edge5" class="edge transition">
<title>sONEtoZERO&#45;&gt;sZERO</title>
<path fill="none" stroke="#000000" d="M196.5692,-179.8015C190.3626,-168.973 182.3726,-155.033 175.445,-142.9466"/>
<polygon fill="#000000" stroke="#000000" points="178.4111,-141.083 170.4017,-134.1476 172.3379,-144.564 178.4111,-141.083"/>
<text text-anchor="start" x="186" y="-154" font-family="Helvetica,sans-Serif" font-size="10.00" fill="#000000">tim_tick = &#39;1&#39; &#160;&#160;</text>
</g>
<!-- sZEROtoONE -->
<g id="node6" class="node state regular">
<title>sZEROtoONE</title>
<polygon fill="#ffffff" fill-opacity="0.003922" stroke="transparent" stroke-width="2" points="292.5,-52 195.5,-52 195.5,-16 292.5,-16 292.5,-52"/>
<text text-anchor="start" x="206.8314" y="-30.2" font-family="Helvetica,sans-Serif" font-size="12.00" fill="#000000">sZEROtoONE</text>
<path fill="none" stroke="#000000" stroke-width="2" d="M207.8333,-17C207.8333,-17 280.1667,-17 280.1667,-17 285.8333,-17 291.5,-22.6667 291.5,-28.3333 291.5,-28.3333 291.5,-39.6667 291.5,-39.6667 291.5,-45.3333 285.8333,-51 280.1667,-51 280.1667,-51 207.8333,-51 207.8333,-51 202.1667,-51 196.5,-45.3333 196.5,-39.6667 196.5,-39.6667 196.5,-28.3333 196.5,-28.3333 196.5,-22.6667 202.1667,-17 207.8333,-17"/>
</g>
<!-- sZERO&#45;&gt;sZEROtoONE -->
<g id="edge6" class="edge transition">
<title>sZERO&#45;&gt;sZEROtoONE</title>
<path fill="none" stroke="#000000" d="M185.5586,-97.6665C192.1317,-92.5421 199.0291,-86.7851 205,-81 211.568,-74.6364 218.1372,-67.2257 223.9613,-60.1959"/>
<polygon fill="#000000" stroke="#000000" points="226.8544,-62.184 230.4112,-52.204 221.4072,-57.7876 226.8544,-62.184"/>
<text text-anchor="start" x="215" y="-72" font-family="Helvetica,sans-Serif" font-size="10.00" fill="#000000">sig_in = &#39;1&#39; &#160;&#160;</text>
</g>
<!-- sZEROtoONE&#45;&gt;sONE -->
<g id="edge8" class="edge transition">
<title>sZEROtoONE&#45;&gt;sONE</title>
<path fill="none" stroke="#000000" d="M292.6825,-42.5322C308.9397,-48.4067 323,-58.3114 323,-75 323,-142.5 323,-142.5 323,-142.5 323,-182.8791 329.2205,-192.6602 331,-233 331.235,-238.3282 333.8533,-240.4941 331,-245 322.924,-257.7535 308.8101,-265.9492 295.0592,-271.1737"/>
<polygon fill="#000000" stroke="#000000" points="293.5726,-267.9805 285.2021,-274.4755 295.796,-274.618 293.5726,-267.9805"/>
<text text-anchor="start" x="323" y="-154" font-family="Helvetica,sans-Serif" font-size="10.00" fill="#000000">tim_tick = &#39;1&#39; &#160;&#160;</text>
</g>
<!-- sZEROtoONE&#45;&gt;sZERO -->
<g id="edge7" class="edge transition">
<title>sZEROtoONE&#45;&gt;sZERO</title>
<path fill="none" stroke="#000000" d="M195.3584,-45.3725C173.2538,-51.6215 150.6008,-59.9363 144.174,-69 140.0919,-74.757 140.2464,-81.6459 142.3429,-88.3516"/>
<polygon fill="#000000" stroke="#000000" points="139.3085,-90.146 146.537,-97.8919 145.7166,-87.3289 139.3085,-90.146"/>
<text text-anchor="start" x="144" y="-72" font-family="Helvetica,sans-Serif" font-size="10.00" fill="#000000">sig_in = &#39;0&#39; &#160;&#160;</text>
</g>
</g>
</svg>
